<svg width="17" height="16" viewBox="0 0 17 16" fill="none" xmlns="http://www.w3.org/2000/svg">
<path d="M8.33496 13.36L11.6283 10.0533C12.2327 9.45777 12.6416 8.75555 12.855 7.94666C13.0594 7.15555 13.0594 6.36443 12.855 5.57332C12.6416 4.76443 12.235 4.05999 11.635 3.45999C11.035 2.85999 10.3305 2.45332 9.52163 2.23999C8.73052 2.03555 7.93941 2.03555 7.14829 2.23999C6.33941 2.45332 5.63496 2.85999 5.03496 3.45999C4.43496 4.05999 4.02829 4.76443 3.81496 5.57332C3.61052 6.36443 3.61052 7.15555 3.81496 7.94666C4.02829 8.75555 4.43718 9.45777 5.04163 10.0533L8.33496 13.36ZM8.33496 15.24L4.09496 11C3.32163 10.2355 2.80163 9.32888 2.53496 8.27999C2.26829 7.26666 2.26829 6.25332 2.53496 5.23999C2.80163 4.1911 3.31941 3.28221 4.08829 2.51332C4.85718 1.74443 5.76607 1.22221 6.81496 0.946656C7.82829 0.688879 8.84163 0.688879 9.85496 0.946656C10.9038 1.22221 11.8127 1.74443 12.5816 2.51332C13.3505 3.28221 13.8683 4.1911 14.135 5.23999C14.4016 6.25332 14.4016 7.26666 14.135 8.27999C13.8683 9.32888 13.3483 10.2355 12.575 11L8.33496 15.24ZM8.33496 8.09332C8.57496 8.09332 8.79718 8.03332 9.00163 7.91332C9.20607 7.79332 9.36829 7.6311 9.48829 7.42666C9.60829 7.22221 9.66829 6.99999 9.66829 6.75999C9.66829 6.51999 9.60829 6.29777 9.48829 6.09332C9.36829 5.88888 9.20607 5.72666 9.00163 5.60666C8.79718 5.48666 8.57496 5.42666 8.33496 5.42666C8.09496 5.42666 7.87274 5.48666 7.66829 5.60666C7.46385 5.72666 7.30163 5.88888 7.18163 6.09332C7.06163 6.29777 7.00163 6.51999 7.00163 6.75999C7.00163 6.99999 7.06163 7.22221 7.18163 7.42666C7.30163 7.6311 7.46385 7.79332 7.66829 7.91332C7.87274 8.03332 8.09496 8.09332 8.33496 8.09332ZM8.33496 9.42666C7.85496 9.42666 7.41052 9.30666 7.00163 9.06666C6.59274 8.82666 6.26829 8.50221 6.02829 8.09332C5.78829 7.68443 5.66829 7.23777 5.66829 6.75332C5.66829 6.26888 5.78829 5.82443 6.02829 5.41999C6.26829 5.01555 6.59274 4.69332 7.00163 4.45332C7.41052 4.21332 7.85496 4.09332 8.33496 4.09332C8.81496 4.09332 9.25941 4.21332 9.66829 4.45332C10.0772 4.69332 10.4016 5.01555 10.6416 5.41999C10.8816 5.82443 11.0016 6.26888 11.0016 6.75332C11.0016 7.23777 10.8816 7.68443 10.6416 8.09332C10.4016 8.50221 10.0772 8.82666 9.66829 9.06666C9.25941 9.30666 8.81496 9.42666 8.33496 9.42666Z" fill="#199800"/>
</svg>
