<svg width="84" height="36" viewBox="0 0 84 36" fill="none" xmlns="http://www.w3.org/2000/svg">
<g clip-path="url(#clip0_7_293)">
<mask id="mask0_7_293" style="mask-type:luminance" maskUnits="userSpaceOnUse" x="0" y="0" width="84" height="36">
<path d="M83.5918 0.382904H0V35.7972H83.5918V0.382904Z" fill="white"/>
</mask>
<g mask="url(#mask0_7_293)">
<path d="M35.6417 6.64344L7.60606 34.5007C6.80009 35.3015 5.68605 35.7974 4.45634 35.7974C1.99566 35.7974 0.00146484 33.8159 0.00146484 31.3712V0.383148H8.91248V20.6833L29.341 0.383148H35.6417V6.64344Z" fill="#199800"/>
<path d="M75.9859 1.67987C76.792 0.879064 77.906 0.383087 79.1361 0.383087C81.5964 0.383087 83.5904 2.36449 83.5904 4.8094V35.7961H74.6795V15.4972L54.2485 35.7973H47.9478V29.5371" fill="#199800"/>
<path d="M30.2753 35.7961H23.9746V29.5371L53.3168 0.383087H59.6174V6.64338" fill="#199800"/>
</g>
</g>
<defs>
<clipPath id="clip0_7_293">
<rect width="84" height="36" fill="white"/>
</clipPath>
</defs>
</svg>
