<svg width="17" height="16" viewBox="0 0 17 16" fill="none" xmlns="http://www.w3.org/2000/svg">
<path d="M2.33512 2H14.3351C14.5218 2 14.6796 2.06444 14.8085 2.19333C14.9373 2.32222 15.0018 2.48 15.0018 2.66667V13.3333C15.0018 13.52 14.9373 13.6778 14.8085 13.8067C14.6796 13.9356 14.5218 14 14.3351 14H2.33512C2.14846 14 1.99068 13.9356 1.86179 13.8067C1.7329 13.6778 1.66846 13.52 1.66846 13.3333V2.66667C1.66846 2.48 1.7329 2.32222 1.86179 2.19333C1.99068 2.06444 2.14846 2 2.33512 2ZM13.6685 4.82667L8.38846 9.56L3.00179 4.81333V12.6667H13.6685V4.82667ZM3.34846 3.33333L8.37512 7.77333L13.3351 3.33333H3.34846Z" fill="#199800"/>
</svg>
