<svg width="17" height="16" viewBox="0 0 17 16" fill="none" xmlns="http://www.w3.org/2000/svg">
<path d="M6.57496 7.12C6.88607 7.67111 7.26607 8.17111 7.71496 8.62C8.16385 9.06889 8.66385 9.44889 9.21496 9.76L9.80163 8.93333C9.89941 8.79111 10.0305 8.70222 10.195 8.66667C10.3594 8.63111 10.5172 8.65333 10.6683 8.73333C11.6194 9.25778 12.6372 9.56 13.7216 9.64C13.8905 9.65778 14.035 9.72889 14.155 9.85333C14.275 9.97778 14.335 10.1289 14.335 10.3067V13.28C14.335 13.4489 14.2772 13.5978 14.1616 13.7267C14.0461 13.8556 13.9039 13.9289 13.735 13.9467C13.3794 13.9822 13.0239 14 12.6683 14C11.2639 14 9.92163 13.7289 8.64163 13.1867C7.40607 12.6622 6.31274 11.9244 5.36163 10.9733C4.41052 10.0222 3.67274 8.92889 3.14829 7.69333C2.60607 6.41333 2.33496 5.07111 2.33496 3.66667C2.33496 3.31111 2.35274 2.95555 2.38829 2.6C2.40607 2.43111 2.47941 2.28889 2.60829 2.17333C2.73718 2.05778 2.88607 2 3.05496 2H6.02829C6.20607 2 6.35718 2.06 6.48163 2.18C6.60607 2.3 6.67718 2.44444 6.69496 2.61333C6.77496 3.69778 7.07718 4.71556 7.60163 5.66667C7.68163 5.81778 7.70385 5.97556 7.66829 6.14C7.63274 6.30444 7.54385 6.43556 7.40163 6.53333L6.57496 7.12ZM4.89496 6.68L6.16163 5.77333C5.80607 5 5.56163 4.18667 5.42829 3.33333H3.66829V3.66667C3.66829 4.88444 3.90385 6.05333 4.37496 7.17333C4.82829 8.24889 5.47052 9.20222 6.30163 10.0333C7.13274 10.8644 8.08607 11.5067 9.16163 11.96C10.2816 12.4311 11.4505 12.6667 12.6683 12.6667H13.0016V10.9067C12.1483 10.7733 11.335 10.5289 10.5616 10.1733L9.65496 11.44C9.29052 11.2978 8.93496 11.1289 8.58829 10.9333L8.54829 10.92C7.89941 10.5467 7.30829 10.0933 6.77496 9.56C6.24163 9.02667 5.78829 8.43556 5.41496 7.78667L5.40163 7.74667C5.20607 7.4 5.03718 7.04444 4.89496 6.68Z" fill="#199800"/>
</svg>
